<mxfile host="app.diagrams.net" agent="Mozilla/5.0 (Windows NT 10.0; Win64; x64) AppleWebKit/537.36 (KHTML, like Gecko) Chrome/131.0.0.0 Safari/537.36" version="24.8.6">
  <diagram name="Page-1" id="AMS0fTUhrBLNYwUgedSh">
    <mxGraphModel dx="581" dy="742" grid="1" gridSize="10" guides="1" tooltips="1" connect="1" arrows="1" fold="1" page="1" pageScale="1" pageWidth="850" pageHeight="1100" math="0" shadow="0">
      <root>
        <mxCell id="0" />
        <mxCell id="1" parent="0" />
        <mxCell id="19YLNRcRQW0V7mlCGsq5-1" value="Konsumen" style="shape=umlActor;verticalLabelPosition=bottom;verticalAlign=top;html=1;outlineConnect=0;" vertex="1" parent="1">
          <mxGeometry x="40" y="200" width="40" height="80" as="geometry" />
        </mxCell>
        <mxCell id="19YLNRcRQW0V7mlCGsq5-3" value="Sistem Toko Buku Online" style="swimlane;whiteSpace=wrap;html=1;" vertex="1" parent="1">
          <mxGeometry x="120" y="80" width="560" height="600" as="geometry" />
        </mxCell>
        <mxCell id="19YLNRcRQW0V7mlCGsq5-7" value="Pencarian Buku" style="ellipse;whiteSpace=wrap;html=1;" vertex="1" parent="19YLNRcRQW0V7mlCGsq5-3">
          <mxGeometry x="110" y="60" width="120" height="80" as="geometry" />
        </mxCell>
        <mxCell id="19YLNRcRQW0V7mlCGsq5-8" value="Judul" style="ellipse;whiteSpace=wrap;html=1;" vertex="1" parent="19YLNRcRQW0V7mlCGsq5-3">
          <mxGeometry x="80" y="210" width="75" height="50" as="geometry" />
        </mxCell>
        <mxCell id="19YLNRcRQW0V7mlCGsq5-11" value="Pengarang" style="ellipse;whiteSpace=wrap;html=1;" vertex="1" parent="19YLNRcRQW0V7mlCGsq5-3">
          <mxGeometry x="170" y="190" width="75" height="50" as="geometry" />
        </mxCell>
        <mxCell id="19YLNRcRQW0V7mlCGsq5-12" value="Kategori" style="ellipse;whiteSpace=wrap;html=1;" vertex="1" parent="19YLNRcRQW0V7mlCGsq5-3">
          <mxGeometry x="268" y="140" width="75" height="50" as="geometry" />
        </mxCell>
        <mxCell id="19YLNRcRQW0V7mlCGsq5-21" value="Pemesanan Buku" style="ellipse;whiteSpace=wrap;html=1;" vertex="1" parent="19YLNRcRQW0V7mlCGsq5-3">
          <mxGeometry x="110" y="300" width="120" height="80" as="geometry" />
        </mxCell>
        <mxCell id="19YLNRcRQW0V7mlCGsq5-23" value="&amp;lt;&amp;lt;include&amp;gt;&amp;gt;" style="endArrow=open;endSize=12;dashed=1;html=1;rounded=0;exitX=0;exitY=1;exitDx=0;exitDy=0;entryX=0.5;entryY=0;entryDx=0;entryDy=0;" edge="1" parent="19YLNRcRQW0V7mlCGsq5-3" source="19YLNRcRQW0V7mlCGsq5-7" target="19YLNRcRQW0V7mlCGsq5-8">
          <mxGeometry width="160" relative="1" as="geometry">
            <mxPoint x="20" y="180" as="sourcePoint" />
            <mxPoint x="30" y="200" as="targetPoint" />
          </mxGeometry>
        </mxCell>
        <mxCell id="19YLNRcRQW0V7mlCGsq5-24" value="&amp;lt;&amp;lt;include&amp;gt;&amp;gt;" style="endArrow=open;endSize=12;dashed=1;html=1;rounded=0;exitX=0.5;exitY=1;exitDx=0;exitDy=0;entryX=0.5;entryY=0;entryDx=0;entryDy=0;" edge="1" parent="19YLNRcRQW0V7mlCGsq5-3" source="19YLNRcRQW0V7mlCGsq5-7" target="19YLNRcRQW0V7mlCGsq5-11">
          <mxGeometry width="160" relative="1" as="geometry">
            <mxPoint x="128" y="220" as="sourcePoint" />
            <mxPoint x="138" y="138" as="targetPoint" />
          </mxGeometry>
        </mxCell>
        <mxCell id="19YLNRcRQW0V7mlCGsq5-25" value="&amp;lt;&amp;lt;include&amp;gt;&amp;gt;" style="endArrow=open;endSize=12;dashed=1;html=1;rounded=0;exitX=1;exitY=1;exitDx=0;exitDy=0;entryX=0;entryY=0.5;entryDx=0;entryDy=0;" edge="1" parent="19YLNRcRQW0V7mlCGsq5-3" source="19YLNRcRQW0V7mlCGsq5-7" target="19YLNRcRQW0V7mlCGsq5-12">
          <mxGeometry width="160" relative="1" as="geometry">
            <mxPoint x="138" y="230" as="sourcePoint" />
            <mxPoint x="148" y="148" as="targetPoint" />
          </mxGeometry>
        </mxCell>
        <mxCell id="19YLNRcRQW0V7mlCGsq5-26" value="Pembayaran" style="ellipse;whiteSpace=wrap;html=1;" vertex="1" parent="19YLNRcRQW0V7mlCGsq5-3">
          <mxGeometry x="110" y="445" width="75" height="50" as="geometry" />
        </mxCell>
        <mxCell id="19YLNRcRQW0V7mlCGsq5-27" value="&amp;lt;&amp;lt;include&amp;gt;&amp;gt;" style="endArrow=open;endSize=12;dashed=1;html=1;rounded=0;exitX=0.5;exitY=1;exitDx=0;exitDy=0;entryX=0.5;entryY=0;entryDx=0;entryDy=0;" edge="1" parent="19YLNRcRQW0V7mlCGsq5-3" source="19YLNRcRQW0V7mlCGsq5-21" target="19YLNRcRQW0V7mlCGsq5-26">
          <mxGeometry width="160" relative="1" as="geometry">
            <mxPoint x="138" y="138" as="sourcePoint" />
            <mxPoint x="128" y="220" as="targetPoint" />
          </mxGeometry>
        </mxCell>
        <mxCell id="19YLNRcRQW0V7mlCGsq5-19" value="" style="endArrow=none;html=1;rounded=0;exitX=0.5;exitY=0.5;exitDx=0;exitDy=0;exitPerimeter=0;entryX=0;entryY=0.5;entryDx=0;entryDy=0;" edge="1" parent="1" source="19YLNRcRQW0V7mlCGsq5-1" target="19YLNRcRQW0V7mlCGsq5-7">
          <mxGeometry width="50" height="50" relative="1" as="geometry">
            <mxPoint x="180" y="420" as="sourcePoint" />
            <mxPoint x="230" y="370" as="targetPoint" />
          </mxGeometry>
        </mxCell>
        <mxCell id="19YLNRcRQW0V7mlCGsq5-22" value="" style="endArrow=none;html=1;rounded=0;exitX=0.5;exitY=0.5;exitDx=0;exitDy=0;exitPerimeter=0;entryX=0;entryY=0.5;entryDx=0;entryDy=0;" edge="1" parent="1" source="19YLNRcRQW0V7mlCGsq5-1" target="19YLNRcRQW0V7mlCGsq5-21">
          <mxGeometry width="50" height="50" relative="1" as="geometry">
            <mxPoint x="70" y="250" as="sourcePoint" />
            <mxPoint x="240" y="190" as="targetPoint" />
          </mxGeometry>
        </mxCell>
        <mxCell id="19YLNRcRQW0V7mlCGsq5-2" value="Admin Toko" style="shape=umlActor;verticalLabelPosition=bottom;verticalAlign=top;html=1;outlineConnect=0;" vertex="1" parent="1">
          <mxGeometry x="40" y="600" width="40" height="80" as="geometry" />
        </mxCell>
      </root>
    </mxGraphModel>
  </diagram>
</mxfile>
